<svg xmlns="http://www.w3.org/2000/svg" xmlns:xlink="http://www.w3.org/1999/xlink" viewBox="0,0,256,256" width="512px" height="512px"><g fill="none" fill-rule="nonzero" stroke="none" stroke-width="1" stroke-linecap="butt" stroke-linejoin="miter" stroke-miterlimit="10" stroke-dasharray="" stroke-dashoffset="0" font-family="none" font-weight="none" font-size="none" text-anchor="none" style="mix-blend-mode: normal"><g transform="scale(4,4)"><path d="M58,13v38c0,3.85 -3.15,7 -7,7h-38c-3.85,0 -7,-3.15 -7,-7v-38c0,-3.85 3.15,-7 7,-7h38c3.85,0 7,3.15 7,7z" fill="#7d7e85"></path><path d="M51,6h-38c-3.85,0 -7,3.15 -7,7v38c0,3.85 3.15,7 7,7h38c3.85,0 7,-3.15 7,-7v-38c0,-3.85 -3.15,-7 -7,-7zM13,56c-2.77,0 -5,-2.23 -5,-5v-38c0,-2.77 2.23,-5 5,-5h38c2.77,0 5,2.23 5,5v38c0,2.77 -2.23,5 -5,5z" fill="#565459"></path><path d="M43.428,21.321l-8.757,2.815l8.757,2.815c0.355,0.114 0.596,0.445 0.596,0.818v8.195c0,0.373 -0.241,0.704 -0.596,0.818l-22.331,7.178c-0.554,0.178 -1.122,-0.235 -1.122,-0.818v-7.643c0,-0.373 0.241,-0.704 0.596,-0.818l8.757,-2.815l-8.757,-2.815c-0.355,-0.114 -0.596,-0.445 -0.596,-0.818v-8.195c0,-0.373 0.241,-0.704 0.596,-0.818l22.331,-7.178c0.554,-0.178 1.122,0.235 1.122,0.818v7.643c0,0.373 -0.241,0.703 -0.596,0.818z" fill="#e9b465"></path><path d="M20.837,44.999c-0.39,0 -0.775,-0.122 -1.097,-0.356c-0.479,-0.349 -0.765,-0.91 -0.765,-1.502v-7.644c0,-0.81 0.518,-1.521 1.289,-1.77l5.796,-1.862l-5.795,-1.862c-0.772,-0.249 -1.29,-0.96 -1.29,-1.771v-8.195c0,-0.81 0.518,-1.521 1.289,-1.77l22.332,-7.178c0.562,-0.182 1.186,-0.081 1.663,0.268c0.479,0.349 0.765,0.91 0.765,1.502v7.644c0,0.81 -0.518,1.521 -1.289,1.77h-0.001l-5.795,1.862l5.795,1.862c0.772,0.249 1.29,0.96 1.29,1.771v8.195c0,0.81 -0.518,1.521 -1.289,1.77l-22.332,7.177c-0.184,0.06 -0.376,0.089 -0.566,0.089zM20.976,35.601v7.347l22.049,-7.088v-7.99l-11.622,-3.735l11.622,-3.735v-7.347l-22.049,7.088v7.989l11.622,3.735zM43.122,20.368v0z" fill="#565459"></path><path d="M47,48c-0.552,0 -1,0.448 -1,1v2c0,0.552 0.448,1 1,1c0.552,0 1,-0.448 1,-1v-2c0,-0.552 -0.448,-1 -1,-1zM52,52c0.552,0 1,-0.448 1,-1v-2c0,-0.552 -0.448,-1 -1,-1c-0.552,0 -1,0.448 -1,1v2c0,0.552 0.448,1 1,1zM32,48c-0.552,0 -1,0.448 -1,1v2c0,0.552 0.448,1 1,1c0.552,0 1,-0.448 1,-1v-2c0,-0.552 -0.448,-1 -1,-1zM27,48c-0.552,0 -1,0.448 -1,1v2c0,0.552 0.448,1 1,1c0.552,0 1,-0.448 1,-1v-2c0,-0.552 -0.448,-1 -1,-1zM22,48c-0.552,0 -1,0.448 -1,1v2c0,0.552 0.448,1 1,1c0.552,0 1,-0.448 1,-1v-2c0,-0.552 -0.448,-1 -1,-1zM17,48c-0.552,0 -1,0.448 -1,1v2c0,0.552 0.448,1 1,1c0.552,0 1,-0.448 1,-1v-2c0,-0.552 -0.448,-1 -1,-1zM12,52c0.552,0 1,-0.448 1,-1v-2c0,-0.552 -0.448,-1 -1,-1c-0.552,0 -1,0.448 -1,1v2c0,0.552 0.448,1 1,1zM42,48c-0.552,0 -1,0.448 -1,1v2c0,0.552 0.448,1 1,1c0.552,0 1,-0.448 1,-1v-2c0,-0.552 -0.448,-1 -1,-1zM37,48c-0.552,0 -1,0.448 -1,1v2c0,0.552 0.448,1 1,1c0.552,0 1,-0.448 1,-1v-2c0,-0.552 -0.448,-1 -1,-1z" fill="#4a474c"></path></g></g></svg>