<svg xmlns="http://www.w3.org/2000/svg" xmlns:xlink="http://www.w3.org/1999/xlink" viewBox="0,0,256,256" width="512px" height="512px"><g fill="none" fill-rule="nonzero" stroke="none" stroke-width="1" stroke-linecap="butt" stroke-linejoin="miter" stroke-miterlimit="10" stroke-dasharray="" stroke-dashoffset="0" font-family="none" font-weight="none" font-size="none" text-anchor="none" style="mix-blend-mode: normal"><g transform="scale(4,4)"><path d="M51,7h-38c-3.31,0 -6,2.69 -6,6v38c0,3.31 2.69,6 6,6h38c3.31,0 6,-2.69 6,-6v-38c0,-3.31 -2.69,-6 -6,-6zM45.88,52c-2.76,0 -4.85,-1.11 -6.2,-3.29l1.76,-1.21c0.84,1.25 2.1,2.6 4.34,2.6c2.57,0 3.72,-1.59 3.72,-3.17c0,-2.25 -1.71,-3.02 -3.53,-3.83l-1.07,-0.47c-3.33,-1.45 -4.57,-3 -4.57,-5.71c0,-2.87 2.13,-4.8 5.3,-4.8c2.16,0 3.63,0.67 4.74,2.22l-1.69,1.11c-0.8,-1.03 -1.77,-1.5 -3.05,-1.5c-1.77,0 -3.06,1.21 -3.06,2.88c0,2 1.4,2.77 3.24,3.59l1.08,0.47c3.87,1.7 5.11,3.15 5.11,5.99c0,3.77 -3.16,5.12 -6.12,5.12zM27.27,52c-2.66,0 -4.78,-1.53 -5.92,-3.25l2.02,-1.2c0.95,1.21 2.19,1.84 3.63,1.84c2.24,0 3.33,-1.24 3.33,-3.79v-13.48h2.67v14.18c0,4.71 -3.11,5.7 -5.73,5.7z" fill="#f6d397"></path><path d="M11,7h42c2.209,0 4,1.791 4,4v0c0,1.657 -1.343,3 -3,3h-44c-1.657,0 -3,-1.343 -3,-3v0c0,-2.209 1.791,-4 4,-4z" fill="#f9e3ae"></path><path d="M51.424,58h-38.847c-3.626,0 -6.577,-2.951 -6.577,-6.577v-38.846c0,-3.626 2.951,-6.577 6.577,-6.577h38.847c3.626,0 6.576,2.95 6.576,6.576v38.849c0,3.625 -2.95,6.575 -6.576,6.575zM12.577,8c-2.524,0 -4.577,2.053 -4.577,4.577v38.846c0,2.524 2.053,4.577 4.577,4.577h38.847c2.523,0 4.576,-2.053 4.576,-4.576v-38.848c0,-2.523 -2.053,-4.576 -4.576,-4.576z" fill="#575459"></path><path d="M47.69,39.06l-1.07,-0.47c-1.88,-0.83 -2.05,-1.13 -2.05,-1.76c0,-0.55 0.4,-0.88 1.06,-0.88c0.74,0 1.26,0.22 1.89,1.36c0.13,0.25 0.36,0.43 0.63,0.49c0.27,0.07 0.56,0.02 0.79,-0.13l3.35,-2.2c0.44,-0.29 0.58,-0.86 0.32,-1.32c-1.53,-2.75 -3.75,-4.03 -6.98,-4.03c-4.23,0 -7.3,2.86 -7.3,6.8c0,4.43 2.92,6.3 5.76,7.54l1.07,0.47c2.11,0.94 2.34,1.24 2.34,2c0,0.97 -0.94,1.17 -1.72,1.17c-1.55,0 -2.3,-1.05 -3.18,-2.52c-0.14,-0.24 -0.38,-0.41 -0.65,-0.47c-0.26,-0.06 -0.55,0 -0.77,0.15l-3.38,2.31c-0.41,0.28 -0.56,0.82 -0.34,1.27c1.68,3.37 4.59,5.16 8.42,5.16c4.93,0 8.12,-2.8 8.12,-7.12c0,-4.21 -2.42,-6.12 -6.31,-7.82zM45.88,52c-2.76,0 -4.85,-1.11 -6.2,-3.29l1.76,-1.21c0.84,1.25 2.1,2.6 4.34,2.6c2.57,0 3.72,-1.59 3.72,-3.17c0,-2.25 -1.71,-3.02 -3.53,-3.83l-1.07,-0.47c-3.33,-1.45 -4.57,-3 -4.57,-5.71c0,-2.87 2.13,-4.8 5.3,-4.8c2.16,0 3.63,0.67 4.74,2.22l-1.69,1.11c-0.8,-1.03 -1.77,-1.5 -3.05,-1.5c-1.77,0 -3.06,1.21 -3.06,2.88c0,2 1.4,2.77 3.24,3.59l1.08,0.47c3.87,1.7 5.11,3.15 5.11,5.99c0,3.77 -3.16,5.12 -6.12,5.12z" fill="#575459"></path><path d="M52,46.88c0,3.77 -3.16,5.12 -6.12,5.12c-2.76,0 -4.85,-1.11 -6.2,-3.29l1.76,-1.21c0.84,1.25 2.1,2.6 4.34,2.6c2.57,0 3.72,-1.59 3.72,-3.17c0,-2.25 -1.71,-3.02 -3.53,-3.83l-1.07,-0.47c-3.33,-1.45 -4.57,-3 -4.57,-5.71c0,-2.87 2.13,-4.8 5.3,-4.8c2.16,0 3.63,0.67 4.74,2.22l-1.69,1.11c-0.8,-1.03 -1.77,-1.5 -3.05,-1.5c-1.77,0 -3.06,1.21 -3.06,2.88c0,2 1.4,2.77 3.24,3.59l1.08,0.47c3.87,1.7 5.11,3.15 5.11,5.99z" fill="#767378"></path><path d="M34,30.12h-4.67c-0.55,0 -1,0.45 -1,1v14.48c0,1.79 -0.53,1.79 -1.33,1.79c-1,0 -1.83,-0.56 -2.46,-1.68c-0.14,-0.24 -0.36,-0.41 -0.62,-0.48c-0.26,-0.06 -0.54,-0.02 -0.77,0.11l-3.66,2.19c-0.45,0.27 -0.61,0.83 -0.39,1.29c1.14,2.39 3.97,5.18 8.17,5.18c4.84,0 7.73,-2.88 7.73,-7.7v-15.18c0,-0.55 -0.45,-1 -1,-1zM33,46.3c0,4.71 -3.11,5.7 -5.73,5.7c-2.66,0 -4.78,-1.53 -5.92,-3.25l2.02,-1.2c0.95,1.21 2.19,1.84 3.63,1.84c2.24,0 3.33,-1.24 3.33,-3.79v-13.48h2.67z" fill="#575459"></path><path d="M33,32.12v14.18c0,4.71 -3.11,5.7 -5.73,5.7c-2.66,0 -4.78,-1.53 -5.92,-3.25l2.02,-1.2c0.95,1.21 2.19,1.84 3.63,1.84c2.24,0 3.33,-1.24 3.33,-3.79v-13.48z" fill="#767378"></path><path d="M17,12c-0.552,0 -1,0.448 -1,1v2c0,0.552 0.448,1 1,1c0.552,0 1,-0.448 1,-1v-2c0,-0.552 -0.448,-1 -1,-1zM12,12c-0.552,0 -1,0.448 -1,1v2c0,0.552 0.448,1 1,1c0.552,0 1,-0.448 1,-1v-2c0,-0.552 -0.448,-1 -1,-1zM32,12c-0.552,0 -1,0.448 -1,1v2c0,0.552 0.448,1 1,1c0.552,0 1,-0.448 1,-1v-2c0,-0.552 -0.448,-1 -1,-1zM37,12c-0.552,0 -1,0.448 -1,1v2c0,0.552 0.448,1 1,1c0.552,0 1,-0.448 1,-1v-2c0,-0.552 -0.448,-1 -1,-1zM42,12c-0.552,0 -1,0.448 -1,1v2c0,0.552 0.448,1 1,1c0.552,0 1,-0.448 1,-1v-2c0,-0.552 -0.448,-1 -1,-1zM47,12c-0.552,0 -1,0.448 -1,1v2c0,0.552 0.448,1 1,1c0.552,0 1,-0.448 1,-1v-2c0,-0.552 -0.448,-1 -1,-1zM52,12c-0.552,0 -1,0.448 -1,1v2c0,0.552 0.448,1 1,1c0.552,0 1,-0.448 1,-1v-2c0,-0.552 -0.448,-1 -1,-1zM22,12c-0.552,0 -1,0.448 -1,1v2c0,0.552 0.448,1 1,1c0.552,0 1,-0.448 1,-1v-2c0,-0.552 -0.448,-1 -1,-1zM27,12c-0.552,0 -1,0.448 -1,1v2c0,0.552 0.448,1 1,1c0.552,0 1,-0.448 1,-1v-2c0,-0.552 -0.448,-1 -1,-1z" fill="#575459"></path></g></g></svg>